<svg xmlns="http://www.w3.org/2000/svg" width="88" height="87" viewBox="0 0 88 87"><defs><linearGradient id="3nqia" x1="74.84" x2="74.84" y1="43.5" y2="24.03" gradientUnits="userSpaceOnUse"><stop offset="0" stop-color="#c6f523"/><stop offset=".9" stop-color="#afe63a"/></linearGradient><linearGradient id="3nqib" x1="74.84" x2="39.7" y1="24.04" y2="4.57" gradientUnits="userSpaceOnUse"><stop offset="0" stop-color="#afe63a"/><stop offset=".9" stop-color="#81c36d"/></linearGradient><linearGradient id="3nqic" x1="39.7" x2="4.56" y1="4.57" y2="24.04" gradientUnits="userSpaceOnUse"><stop offset="0" stop-color="#81c36d"/><stop offset=".8" stop-color="#61afb4"/></linearGradient><linearGradient id="3nqid" x1="4.56" x2="39.7" y1="24.04" y2="43.51" gradientUnits="userSpaceOnUse"><stop offset="0" stop-color="#61afb4"/><stop offset=".9" stop-color="#42a0da"/></linearGradient><linearGradient id="3nqie" x1="39.7" x2="39.7" y1="43.5" y2="82.44" gradientUnits="userSpaceOnUse"><stop offset="0" stop-color="#42a0da"/><stop offset=".8" stop-color="#3b84bb"/></linearGradient><linearGradient id="3nqif" x1="74.84" x2="39.7" y1="62.97" y2="82.44" gradientUnits="userSpaceOnUse"><stop offset="0" stop-color="#386d9b"/><stop offset=".7" stop-color="#3b84bb"/></linearGradient><linearGradient id="3nqig" x1="39.7" x2="4.56" y1="82.44" y2="62.97" gradientUnits="userSpaceOnUse"><stop offset=".3" stop-color="#3b84bb"/><stop offset=".9" stop-color="#366fa5"/></linearGradient><linearGradient id="3nqih" x1="4.57" x2="4.57" y1="62.97" y2="43.5" gradientUnits="userSpaceOnUse"><stop offset="0" stop-color="#366fa5"/><stop offset="1" stop-color="#366998"/></linearGradient></defs><g><g><g/><g><g><g><path fill="url(#3nqia)" d="M74.833 48.063A4.566 4.566 0 0 1 70.27 43.5V24.033a4.566 4.566 0 0 1 4.563-4.563 4.566 4.566 0 0 1 4.562 4.563V43.5a4.566 4.566 0 0 1-4.562 4.563z"/></g></g><g><g><path fill="url(#3nqib)" d="M74.832 28.597a4.54 4.54 0 0 1-2.205-.57L37.494 8.559a4.563 4.563 0 0 1-1.78-6.205A4.563 4.563 0 0 1 41.92.574l35.134 19.468a4.563 4.563 0 0 1-2.221 8.555z"/></g></g><g><g><path fill="url(#3nqic)" d="M4.567 28.597a4.563 4.563 0 0 1-2.213-8.555L37.487.574a4.563 4.563 0 0 1 6.205 1.78 4.563 4.563 0 0 1-1.78 6.205L6.78 28.027a4.59 4.59 0 0 1-2.212.57z"/></g></g><g><g><path fill="url(#3nqid)" d="M39.692 48.067a4.54 4.54 0 0 1-2.205-.57L2.354 28.029a4.563 4.563 0 0 1-1.78-6.205 4.563 4.563 0 0 1 6.205-1.78l35.134 19.468a4.563 4.563 0 0 1-2.221 8.555z"/></g></g><g><g><path fill="url(#3nqie)" d="M39.693 87a4.566 4.566 0 0 1-4.563-4.562V43.503a4.566 4.566 0 0 1 4.563-4.563 4.566 4.566 0 0 1 4.562 4.563v38.935a4.566 4.566 0 0 1-4.562 4.563z"/></g></g><g><g><path fill="url(#3nqif)" d="M39.707 86.997a4.562 4.562 0 0 1-2.213-8.555l35.133-19.468a4.563 4.563 0 0 1 6.205 1.78 4.563 4.563 0 0 1-1.78 6.205L41.92 86.427a4.59 4.59 0 0 1-2.212.57z"/></g></g><g><g><path fill="url(#3nqig)" d="M39.692 86.997a4.54 4.54 0 0 1-2.205-.57L2.354 66.959a4.563 4.563 0 0 1-1.78-6.205 4.563 4.563 0 0 1 6.205-1.78l35.134 19.468a4.563 4.563 0 0 1-2.221 8.555z"/></g></g><g><g><path fill="url(#3nqih)" d="M4.563 67.533A4.566 4.566 0 0 1 0 62.97V43.503a4.566 4.566 0 0 1 4.563-4.563 4.566 4.566 0 0 1 4.562 4.563V62.97a4.566 4.566 0 0 1-4.562 4.563z"/></g></g></g></g></g></svg>