<svg xmlns="http://www.w3.org/2000/svg" width="38" height="31" viewBox="0 0 38 31"><g><g><path fill="#211700" d="M33.074 14.042c-1.28 0-2.367-.874-2.559-2.122-.384-2.246-1.151-3.806-1.983-3.806-.832 0-1.535 1.497-1.983 3.681-.128.874-.96 1.498-1.855 1.498h-.832c-1.024 0-1.855-.749-1.92-1.747-.32-5.492-1.215-9.673-2.43-10.609a.49.49 0 0 0-.256-.125c-.064 0-.064 0-.128-.062h-.256c-.064 0-.064 0-.128.062-.064.063-.192.063-.256.125-1.151.936-2.11 5.18-2.43 10.609-.065.998-.896 1.747-1.92 1.747h-.832c-.895 0-1.727-.624-1.855-1.498-.384-2.184-1.151-3.681-1.983-3.681-.832 0-1.6 1.56-1.983 3.806-.192 1.186-1.28 2.122-2.56 2.122-2.75 0-4.925.686-4.925 1.497 0 .812 2.175 1.498 4.926 1.498 1.28 0 2.367.874 2.559 2.122.384 2.246 1.151 3.806 1.983 3.806.832 0 1.535-1.497 1.983-3.681.128-.874.96-1.498 1.855-1.498h.832c1.024 0 1.791.749 1.92 1.747.32 5.492 1.215 9.673 2.43 10.609a.49.49 0 0 0 .256.124c.064 0 .064 0 .128.063h.256c.064 0 .064 0 .128-.063.064-.062.192-.062.256-.124 1.151-.936 2.11-5.18 2.43-10.609.065-.998.896-1.747 1.92-1.747h.832c.895 0 1.727.624 1.855 1.498.384 2.184 1.151 3.681 1.983 3.681.832 0 1.6-1.56 1.983-3.806.192-1.186 1.28-2.122 2.56-2.122 2.75 0 4.925-.686 4.925-1.498 0-.81-2.175-1.497-4.926-1.497z"/></g></g></svg>