<svg xmlns="http://www.w3.org/2000/svg" width="38" height="38" viewBox="0 0 38 38"><g><g><g/><g><g><path fill="#211700" d="M5.673 29.155a2.869 2.869 0 0 1-2.875 2.876C1.166 32.03 0 30.709 0 29.155a2.869 2.869 0 0 1 2.875-2.875c1.632 0 2.798 1.321 2.798 2.875z"/></g><g><path fill="#211700" d="M5.673 18.345a2.869 2.869 0 0 1-2.875 2.876C1.166 21.22 0 19.899 0 18.345a2.869 2.869 0 0 1 2.875-2.875c1.632 0 2.798 1.321 2.798 2.875z"/></g><g><path fill="#211700" d="M16.47 29.155a2.869 2.869 0 0 1-2.875 2.876 2.869 2.869 0 0 1-2.875-2.876c0-1.632 1.243-2.875 2.875-2.875 1.554 0 2.876 1.321 2.876 2.875z"/></g><g><path fill="#211700" d="M16.47 18.345a2.869 2.869 0 0 1-2.875 2.876 2.869 2.869 0 0 1-2.875-2.876c0-1.632 1.243-2.875 2.875-2.875 1.554.078 2.876 1.321 2.876 2.875z"/></g><g><path fill="#211700" d="M38 18.345a2.869 2.869 0 0 1-2.875 2.876 2.869 2.869 0 0 1-2.875-2.876c0-1.632 1.243-2.875 2.875-2.875 1.554.078 2.876 1.321 2.876 2.875z"/></g><g><path fill="#211700" d="M38 7.625a2.869 2.869 0 0 1-2.875 2.876 2.869 2.869 0 0 1-2.875-2.876 2.869 2.869 0 0 1 2.875-2.875 2.869 2.869 0 0 1 2.876 2.875z"/></g><g><path fill="#211700" d="M27.2 29.155a2.869 2.869 0 0 1-2.875 2.876c-1.632 0-2.875-1.244-2.875-2.876s1.243-2.875 2.875-2.875a2.869 2.869 0 0 1 2.876 2.875z"/></g><g><path fill="#211700" d="M27.2 18.345a2.869 2.869 0 0 1-2.875 2.876c-1.632 0-2.875-1.244-2.875-2.876s1.243-2.875 2.875-2.875a2.869 2.869 0 0 1 2.876 2.875z"/></g><g><path fill="#211700" d="M27.2 7.625a2.869 2.869 0 0 1-2.875 2.876c-1.632 0-2.875-1.244-2.875-2.876s1.399-2.875 2.953-2.875c1.554 0 2.798 1.243 2.798 2.875z"/></g></g></g></g></svg>